<?xml version="1.0" encoding="UTF-8" standalone="no"?><svg xmlns="http://www.w3.org/2000/svg" xmlns:xlink="http://www.w3.org/1999/xlink" fill="#000000" height="63.9" preserveAspectRatio="xMidYMid meet" version="1" viewBox="-0.2 18.0 100.7 63.9" width="100.7" zoomAndPan="magnify"><g id="change1_1"><path d="M 86.546875 81.113281 Z M 48.746094 74.796875 C 44.074219 73.871094 37.246094 67.964844 35.941406 66.214844 C 34.25 63.945312 33.382812 61.132812 33.1875 58.25 C 33.265625 60.789062 33.855469 63.257812 35.085938 65.433594 L 31.222656 61.527344 C 30.132812 59.828125 29.546875 57.386719 30.078125 55.148438 C 29.535156 57.058594 29.789062 59.058594 30.566406 60.867188 L 29.660156 59.949219 C 28.699219 59.054688 29.261719 56.03125 29.609375 54.558594 C 30.027344 52.777344 29.695312 51.027344 29.078125 50 C 28.171875 48.492188 28.796875 46.679688 28.796875 46.679688 C 28.796875 46.679688 29.476562 44.726562 29.742188 44.148438 C 30.765625 47.625 31.117188 49.984375 31.359375 52.683594 C 31.164062 49.917969 30.847656 47.488281 29.851562 43.894531 C 30.078125 43.164062 30.15625 41.699219 30.53125 40.84375 C 30.691406 41.363281 29.769531 38.394531 33.207031 49.464844 C 36.753906 58.472656 35.425781 58.644531 36.109375 61.371094 C 36.136719 61.433594 36.777344 64.949219 40.628906 68.429688 C 41.90625 69.589844 43.066406 71.128906 47.34375 73.503906 C 48.761719 74.320312 50.3125 74.960938 51.84375 75.585938 C 50.351562 75.207031 48.746094 74.796875 48.746094 74.796875 Z M 27.765625 38.117188 C 27.925781 37.582031 27.921875 37.222656 28.277344 36.792969 C 28.472656 36.550781 28.738281 36.167969 28.933594 35.683594 L 29.449219 37.34375 C 29.273438 37.769531 28.746094 38.4375 28.011719 38.691406 C 27.9375 38.503906 27.84375 38.304688 27.765625 38.117188 Z M 27.449219 38.785156 C 27.449219 38.785156 27.535156 38.628906 27.644531 38.378906 C 27.699219 38.5 27.753906 38.625 27.808594 38.75 C 27.695312 38.773438 27.574219 38.785156 27.449219 38.785156 Z M 24.992188 39.078125 C 24.941406 39.707031 24.765625 40.527344 24.199219 40.671875 L 24.503906 37.636719 C 24.695312 37.96875 25.050781 38.355469 24.992188 39.078125 Z M 22.339844 54.050781 C 22.339844 54.050781 21.765625 56.746094 21.121094 58.890625 C 20.476562 61.03125 18.007812 62.925781 18.007812 62.925781 C 18.371094 61.570312 17.902344 56.496094 17.925781 55.398438 C 17.953125 54.300781 17.847656 53.335938 17.527344 52.71875 C 17.207031 52.101562 17.328125 51.742188 17.328125 51.742188 C 17.359375 51.734375 17.773438 51.824219 17.777344 51.484375 L 17.785156 50.230469 C 17.96875 50.257812 18.910156 50.273438 19.097656 50.285156 C 20.5 50.382812 22.339844 50.160156 22.339844 50.160156 C 22.601562 50.839844 22.339844 54.050781 22.339844 54.050781 Z M 14.707031 34.238281 C 14.675781 34.714844 14.707031 35.363281 14.128906 35.078125 C 13.601562 34.8125 13.328125 34.511719 13.285156 34.460938 C 13.171875 34.546875 13.097656 34.535156 13 34.460938 C 12.957031 34.511719 12.683594 34.8125 12.15625 35.078125 C 11.582031 35.363281 11.609375 34.714844 11.582031 34.238281 C 11.5625 33.929688 11.917969 33.9375 12.175781 33.980469 C 12.480469 34.03125 12.644531 34.152344 13.007812 34.3125 L 13.03125 34.304688 C 13.160156 34.257812 13.269531 34.316406 13.277344 34.316406 C 13.667969 34.136719 13.804688 34.039062 14.050781 33.988281 C 14.308594 33.941406 14.726562 33.90625 14.707031 34.238281 Z M 99.714844 79.21875 C 99.714844 79.21875 99.46875 78.730469 99.886719 77.917969 C 100.304688 77.105469 93.480469 77.546875 93.480469 77.546875 C 93.480469 77.546875 86.101562 78.382812 87.320312 77.546875 C 88.878906 76.480469 75.164062 76.882812 74.453125 77.117188 C 73.785156 77.335938 73.070312 77.359375 72.371094 77.457031 C 71.175781 77.625 69.363281 77.824219 68.171875 77.617188 C 69.957031 77.871094 73.269531 77.207031 75.015625 76.808594 C 75.847656 76.617188 71.75 76.425781 68.136719 76.921875 C 64.726562 77.390625 55.449219 76.492188 53.816406 76.082031 C 50.171875 74.550781 47.015625 73.265625 43.753906 70.800781 C 42.222656 69.636719 42.175781 69.394531 40.839844 68.195312 C 38.992188 66.535156 37.367188 64.382812 36.527344 61.835938 C 35.5 58.449219 37.238281 58.945312 33.394531 49.394531 C 33.390625 49.378906 30.621094 40.785156 30.59375 40.695312 C 30.964844 39.722656 31.839844 36.632812 31.839844 36.632812 C 31.839844 36.632812 32.089844 33.839844 33.070312 32.011719 C 34.117188 30.058594 35.25 26.976562 35.25 26.976562 C 35.25 26.976562 35.503906 26.394531 35.832031 26.582031 C 35.910156 26.628906 35.949219 26.746094 35.964844 26.859375 C 35.984375 27.003906 36.125 27.097656 36.269531 27.058594 L 36.738281 26.9375 C 37.074219 26.847656 36.84375 26.410156 36.828125 25.886719 C 36.699219 25.617188 36.945312 25.292969 36.945312 25.292969 C 37.230469 25.320312 37.46875 25.035156 37.496094 24.753906 C 37.527344 24.46875 37.40625 24.191406 37.292969 23.929688 C 37.835938 23.921875 38.175781 23.332031 37.910156 22.859375 C 38.308594 22.835938 38.625 22.402344 38.53125 22.019531 C 38.503906 21.917969 38.457031 21.820312 38.46875 21.71875 C 38.5 21.523438 38.964844 21.148438 38.753906 20.777344 C 38.707031 20.695312 38.628906 20.628906 38.597656 20.539062 C 38.5625 20.433594 38.601562 20.324219 38.605469 20.214844 C 38.613281 20 38.472656 19.792969 38.269531 19.71875 C 38.164062 19.679688 38.039062 19.679688 37.949219 19.609375 C 37.828125 19.523438 37.421875 18.671875 36.394531 18.746094 C 36.34375 17.96875 34.839844 18.171875 34.777344 18.503906 C 34.410156 18.335938 34.003906 18.261719 33.601562 18.289062 C 33.335938 18.308594 33.382812 18.453125 33.371094 18.527344 C 33.328125 18.796875 32.910156 18.742188 32.816406 18.742188 C 32.125 18.742188 31.90625 19.355469 32.191406 19.636719 C 31.96875 19.792969 31.742188 19.964844 31.605469 20.199219 C 31.46875 20.433594 31.4375 20.75 31.597656 20.96875 C 31.054688 21.1875 30.898438 21.886719 31.296875 22.316406 C 31.484375 22.515625 31.464844 22.535156 31.355469 22.738281 C 31.203125 23.03125 31.320312 23.433594 31.605469 23.597656 C 31.753906 23.679688 31.945312 23.71875 32.019531 23.867188 C 32.109375 24.035156 31.996094 24.25 32.074219 24.425781 C 32.183594 24.679688 32.582031 24.632812 32.78125 24.824219 C 32.921875 24.960938 32.910156 25.144531 33.550781 25.207031 C 33.730469 25.226562 33.984375 25.1875 33.988281 25.003906 C 33.988281 25.003906 34.621094 24.78125 34.585938 25.433594 C 34.550781 26.085938 33.777344 27.140625 33.777344 27.140625 C 33.777344 27.140625 31.996094 29.871094 31.414062 31.640625 C 31.039062 32.78125 30.546875 33.070312 29.675781 36.3125 C 29.558594 36.746094 29.546875 37.058594 29.480469 37.253906 L 28.957031 35.621094 C 29.257812 34.832031 29.367188 33.773438 28.738281 32.558594 C 27.382812 29.929688 24.847656 31.4375 24.847656 31.4375 C 24.847656 31.4375 23.386719 32.269531 23.382812 34.796875 C 23.382812 36.121094 23.566406 36.320312 24.152344 36.851562 C 24.152344 36.851562 24.230469 37.121094 24.414062 37.476562 L 24.058594 40.683594 C 23.742188 40.703125 22.742188 40.871094 22.332031 42.136719 C 22.246094 42.394531 22.128906 42.644531 21.96875 42.867188 C 21.675781 43.269531 21.285156 44.144531 21.753906 45.664062 C 22.039062 46.601562 21.800781 47.207031 21.746094 47.972656 C 21.746094 47.972656 20.773438 48.671875 19.957031 48.636719 C 19.136719 48.601562 17.726562 48.777344 17.726562 48.777344 L 17.554688 44.839844 L 17.554688 38.605469 C 17.554688 38.605469 17.363281 37.628906 18.738281 36.839844 C 20.113281 36.050781 22.707031 32.96875 23.210938 31.976562 C 23.714844 30.984375 26.535156 26.53125 26.570312 25.746094 L 26.035156 25.339844 C 26.035156 25.339844 27.265625 24.203125 27.480469 23.222656 C 27.582031 22.75 27.835938 22.304688 27.925781 21.820312 C 27.96875 21.597656 27.777344 21.433594 27.683594 21.5 L 27.890625 21.117188 C 27.984375 20.941406 27.863281 20.683594 27.613281 20.816406 C 27.613281 20.816406 27.613281 20.453125 27.300781 20.59375 C 27.300781 20.59375 27.230469 20.199219 26.847656 20.417969 C 26.847656 20.417969 26.765625 19.816406 26.28125 20.117188 C 26.117188 20.410156 25.582031 22.089844 24.898438 22.507812 C 24.898438 22.507812 24.476562 22.96875 24 21.90625 C 23.808594 21.488281 23.289062 21.339844 23.148438 21.425781 C 23.089844 21.460938 23.085938 21.539062 23.128906 21.589844 C 23.257812 21.734375 23.636719 22.191406 23.65625 22.566406 C 23.679688 23.019531 23.867188 23.296875 24.214844 23.773438 C 24.5625 24.25 24.285156 24.679688 24.285156 24.679688 L 24.121094 24.582031 C 24.121094 24.582031 21.441406 29.15625 20.605469 30.226562 C 19.769531 31.292969 18.238281 33.503906 17.914062 33.488281 C 17.589844 33.472656 17.363281 33.554688 16.578125 32.925781 C 16.578125 32.925781 15.96875 32.550781 15.527344 32.761719 C 15.601562 32.359375 15.59375 32.351562 15.617188 32.292969 C 15.71875 32.074219 16.289062 30.800781 15.792969 30.851562 C 15.792969 30.851562 15.855469 29.855469 15.660156 28.925781 C 15.179688 26.644531 12.011719 26.417969 11.148438 28.617188 C 10.929688 29.175781 10.726562 29.949219 10.867188 30.703125 C 10.867188 30.703125 10.183594 30.644531 10.902344 32.117188 C 10.902344 32.136719 11.027344 32.671875 10.726562 32.621094 C 10.453125 32.570312 9.945312 32.644531 9.953125 33.835938 C 9.953125 33.835938 7.992188 34.566406 6.460938 32.699219 C 5.230469 31.195312 4.535156 30.558594 4.304688 29.171875 C 4.027344 27.5 3.550781 24.503906 3.625 23.566406 C 3.628906 23.507812 3.578125 23.457031 3.519531 23.460938 L 3.515625 23.460938 C 3.441406 23.46875 3.378906 23.414062 3.371094 23.339844 C 3.300781 22.582031 3.292969 22.8125 3.433594 22.566406 C 3.460938 22.511719 3.722656 22.132812 3.191406 21.394531 C 3.058594 21.210938 2.972656 21.003906 2.929688 20.78125 C 2.859375 20.398438 2.539062 19.539062 2.292969 19.664062 C 2.292969 19.664062 1.945312 19.699219 2.316406 20.929688 C 2.316406 20.929688 2.328125 21.171875 2.109375 21.140625 C 2.109375 21.140625 1.300781 20.644531 1.109375 20.304688 C 0.453125 19.132812 0.785156 18.644531 0.332031 18.46875 C 0.214844 18.421875 0.0859375 18.492188 0.0625 18.613281 C -0.214844 20.011719 0.519531 21.0625 0.613281 21.359375 C 1.128906 23.023438 1.867188 22.859375 1.78125 23.554688 L 1.148438 23.554688 C 1.148438 23.554688 1.511719 30.101562 2.222656 32.175781 C 2.78125 33.800781 4.675781 35.925781 5.574219 37.253906 C 6.910156 39.230469 7.507812 41.363281 7.539062 42.664062 C 7.585938 44.683594 6.402344 45.472656 7.050781 51.648438 L 7.734375 51.648438 C 7.734375 51.648438 7.039062 55.324219 7.453125 59.21875 C 7.964844 64.023438 7.078125 66.585938 7.160156 69.933594 C 7.226562 72.59375 7.488281 75.5625 7.550781 76.824219 C 7.566406 77.078125 7.84375 77.03125 7.859375 77.039062 C 7.960938 77.039062 8.019531 77.148438 7.964844 77.230469 C 7.644531 77.726562 6.839844 79.046875 7.015625 79.625 C 7.167969 80.113281 8.59375 80.027344 9.425781 79.933594 C 9.582031 79.914062 9.714844 79.804688 9.757812 79.648438 C 10.003906 78.742188 9.722656 78.128906 10.175781 78.132812 L 11.242188 78.136719 C 11.394531 78.140625 11.515625 78.015625 11.515625 77.863281 C 11.351562 66.667969 11.382812 66.96875 11.324219 66.265625 C 11.285156 65.796875 11.363281 64.214844 12.886719 59.621094 C 12.886719 59.621094 14.398438 66.894531 14.222656 69.714844 L 15.070312 68.507812 C 15.070312 68.507812 12.742188 74.15625 12.609375 74.589844 C 10.972656 79.847656 12.820312 79.8125 12.820312 79.8125 L 16.300781 80.007812 C 16.90625 80.160156 17.226562 79.832031 17.394531 79.464844 C 17.394531 76.886719 17.609375 72.683594 18.585938 70.285156 C 17.683594 72.753906 17.628906 77.09375 17.738281 79.722656 C 17.964844 80.007812 18.332031 80.023438 18.519531 80.015625 C 18.792969 80.007812 18.601562 80.003906 22.09375 80.140625 C 22.363281 80.152344 22.621094 80.25 22.839844 80.410156 C 23.886719 81.1875 25.105469 80.21875 25.359375 80.097656 C 25.222656 78.71875 25.023438 76.351562 25.421875 74.769531 C 25.113281 76.277344 25.367188 78.523438 25.585938 80.035156 C 25.738281 80.015625 25.664062 80.03125 27.523438 80.191406 C 27.71875 80.207031 27.902344 80.3125 27.992188 80.488281 C 28.402344 81.269531 31.644531 81.035156 32.851562 80.871094 C 33.289062 80.808594 31.570312 81.101562 44.390625 81.609375 C 42.679688 81.191406 41.757812 80.8125 41.78125 80.824219 C 41.398438 80.691406 40.5 80.292969 39.78125 79.878906 C 38.046875 78.960938 35.972656 76.851562 34.773438 75.585938 C 36.019531 76.859375 38.113281 78.90625 39.835938 79.78125 C 41.128906 80.492188 42.414062 80.886719 42.398438 80.878906 C 42.597656 80.933594 43.488281 81.25 45.53125 81.652344 C 49.089844 81.785156 52.347656 81.84375 53.585938 81.730469 C 56.925781 81.421875 70.644531 81.480469 76.074219 81.691406 C 78.527344 81.785156 83.382812 81.703125 88.046875 81.570312 C 84.59375 80.238281 77.902344 80.230469 77.886719 80.230469 C 77.902344 80.230469 85.460938 80.03125 88.738281 81.550781 C 94.140625 81.390625 99.117188 81.171875 99.574219 81.097656 C 100.445312 80.960938 99.714844 79.21875 99.714844 79.21875" fill="#d6a07d"/></g></svg>